<?xml version="1.0" encoding="UTF-8"?>
<svg width="240px" height="48px" viewBox="0 0 240 48" version="1.1" xmlns="http://www.w3.org/2000/svg" xmlns:xlink="http://www.w3.org/1999/xlink">
    <title>Artboard</title>
    <g id="Artboard" stroke="none" stroke-width="1" fill="none" fill-rule="evenodd">
        <rect id="Rectangle" fill="#4F1370" x="0" y="0" width="240" height="48" rx="8"></rect>
        <path d="M19.6072785,11 C18.5094557,11 17.4162595,11.1444477 16.3276898,11.433343 C15.2391201,11.7222384 14.2436879,12.1512341 13.3413933,12.7203303 C12.4390718,13.2894265 11.724064,13.9881004 11.1963699,14.8163519 C11.1162945,14.9380747 11.063548,15.0442369 11.0381304,15.1348383 C11.0127101,15.2254668 11,15.3495055 11,15.5069543 L11,36.467162 C11,36.6178068 11.0452779,36.7442751 11.1358338,36.8465667 C11.2263951,36.9488556 11.3481416,37 11.5010733,37 C11.6373064,37 11.7427859,36.9792321 11.8175118,36.9376963 C11.8922106,36.8961605 11.9661002,36.8334437 12.0391805,36.7495459 C12.9528054,35.8312076 14.0861836,35.1632732 15.4393152,34.7457428 C16.7924739,34.3282178 18.1928015,34.1194553 19.6402981,34.1194553 C21.1660277,34.1194553 22.4719903,34.3876288 23.558186,34.9239757 C24.6443818,35.4603281 25.4874622,36.0004508 26.0874272,36.5443438 C26.2341813,36.6538673 26.3884349,36.708629 26.5501881,36.708629 C26.6732834,36.708629 26.7790192,36.6672991 26.8673953,36.5846391 C26.9557984,36.5019819 27,36.3917366 27,36.2539033 L27,14.715309 C27,14.5528764 26.9835441,14.4220664 26.9506324,14.3228788 C26.9176936,14.2236912 26.8523422,14.1227431 26.7545781,14.0200344 C25.8349914,12.9828714 24.7465836,12.2202348 23.4893546,11.7321246 C22.2320987,11.2440415 20.9380733,11 19.6072785,11 Z M35.3927178,11 C34.0610874,11 32.7668603,11.2440415 31.5100366,11.7321246 C30.253213,12.2202348 29.165008,12.9828714 28.2454217,14.0200344 C28.1476577,14.1227431 28.0823063,14.2236912 28.0493676,14.3228788 C28.0164559,14.4220664 28,14.5528764 28,14.715309 L28,36.2539033 C28,36.3917366 28.0441881,36.5019819 28.1325642,36.5846391 C28.2209672,36.6672991 28.3268108,36.708629 28.450095,36.708629 C28.611875,36.708629 28.7661421,36.6538673 28.912896,36.5443438 C29.512645,36.0004508 30.355671,35.4603281 31.4419741,34.9239757 C32.5282772,34.3876288 33.8337671,34.1194553 35.3584437,34.1194553 C36.8067759,34.1194553 38.2075749,34.3282178 39.5608408,34.7457428 C40.9140796,35.1632732 42.0474034,35.8312076 42.9608119,36.7495459 C43.034081,36.8334437 43.1080245,36.8961605 43.1826424,36.9376963 C43.2572334,36.9792321 43.3626588,37 43.4989188,37 C43.6518505,37 43.7735969,36.9488556 43.8641582,36.8465667 C43.9547194,36.7442751 44,36.6178068 44,36.467162 L44,15.5069543 C44,15.3495055 43.9872804,15.2254668 43.9618413,15.1348383 C43.9364291,15.0442369 43.8837973,14.9380747 43.8039459,14.8163519 C43.2760362,13.9881004 42.5609209,13.2894265 41.6585998,12.7203303 C40.7563056,12.1512341 39.760874,11.7222384 38.6723048,11.433343 C37.5837357,11.1444477 36.49054,11 35.3927178,11 Z" id="Shape" fill="#FFFFFF" fill-rule="nonzero"></path>
        <text id="Documentation" font-family="Helvetica-Bold, Helvetica" font-size="24" font-weight="bold" fill="#FFFFFF">
            <tspan x="51.1660156" y="34">Documentation</tspan>
        </text>
    </g>
</svg>